<?xml version="1.0" standalone="no"?>
<!DOCTYPE svg PUBLIC "-//W3C//DTD SVG 20010904//EN"
 "http://www.w3.org/TR/2001/REC-SVG-20010904/DTD/svg10.dtd">
<svg version="1.0" xmlns="http://www.w3.org/2000/svg"
 width="280.000000pt" height="280.000000pt" viewBox="0 0 280.000000 280.000000"
 preserveAspectRatio="xMidYMid meet">
<metadata>
Created by potrace 1.11, written by Peter Selinger 2001-2013
</metadata>
<g transform="translate(0.000000,280.000000) scale(0.100000,-0.100000)"
fill="#000000" stroke="none">
<path d="M1305 2507 c-117 -81 -257 -221 -327 -328 -111 -167 -198 -418 -198
-568 l0 -77 -45 -22 c-193 -93 -449 -371 -527 -570 -16 -43 -38 -97 -48 -122
-29 -74 -40 -144 -40 -268 l0 -117 58 -31 c59 -33 226 -95 322 -120 30 -8 71
-19 90 -24 19 -6 89 -13 156 -16 208 -12 353 17 583 114 81 34 85 35 115 19
46 -25 242 -94 316 -112 90 -23 368 -31 479 -15 90 13 346 94 403 127 l33 19
3 147 c3 168 -16 273 -67 376 -16 33 -32 70 -36 83 -15 48 -112 176 -198 261
-78 78 -215 179 -299 223 -24 12 -28 21 -28 52 1 42 -13 145 -34 247 -39 188
-164 429 -295 569 -50 52 -162 146 -226 189 -60 40 -87 35 -190 -36z m222 -93
c55 -35 153 -127 208 -194 30 -38 55 -71 55 -74 0 -3 13 -27 28 -53 41 -71
100 -223 93 -241 -1 -1 5 -15 13 -30 17 -34 43 -188 52 -307 16 -226 -75 -488
-262 -756 -69 -98 -103 -130 -132 -122 -12 3 -22 9 -22 13 0 4 -22 18 -50 31
-27 13 -50 27 -50 30 0 3 42 48 93 100 137 138 209 255 256 417 59 200 62 358
10 537 -11 39 -24 84 -28 100 -41 148 -227 390 -349 454 -31 16 -71 -4 -148
-77 -141 -132 -248 -330 -296 -547 l-13 -59 -58 -20 c-32 -10 -60 -16 -64 -13
-3 4 2 48 11 99 52 275 196 511 418 684 97 76 149 82 235 28z m-45 -293 c69
-73 135 -174 180 -277 41 -91 72 -183 65 -190 -3 -3 -45 3 -93 12 -127 24
-454 23 -519 -2 -45 -18 24 175 112 314 40 63 170 202 188 202 7 0 37 -26 67
-59z m23 -541 c33 -5 78 -12 100 -15 22 -4 59 -13 83 -22 40 -15 42 -18 42
-57 0 -63 -9 -88 -30 -81 -59 19 -215 35 -340 35 -142 0 -228 -11 -363 -46
-122 -31 -281 -129 -373 -227 -70 -76 -68 -74 -130 -174 -45 -73 -119 -294
-130 -385 l-7 -56 71 -36 c86 -43 205 -66 341 -66 120 0 282 23 351 49 58 22
81 18 119 -22 l23 -26 -38 -19 c-95 -48 -277 -82 -434 -82 -154 0 -291 27
-406 80 -47 22 -88 40 -91 40 -2 0 -19 10 -35 22 l-30 21 5 101 c23 427 321
771 787 910 163 48 162 48 295 56 66 4 122 8 125 8 3 1 32 -2 65 -8z m70 -252
c33 -11 75 -27 94 -36 32 -15 33 -17 27 -59 -7 -54 -56 -169 -96 -227 -16 -25
-30 -48 -30 -53 0 -15 -134 -139 -163 -151 -20 -9 -32 -9 -45 -1 -19 12 -119
140 -141 179 -68 125 -109 221 -116 271 l-7 46 44 16 c49 18 117 35 168 41 67
7 205 -6 265 -26z m570 -15 c285 -200 435 -470 435 -783 l0 -68 -42 -25 c-127
-74 -290 -103 -518 -93 -250 10 -455 79 -661 222 -129 89 -287 243 -353 344
-52 79 -110 200 -119 248 -6 30 -3 35 41 66 53 39 66 35 77 -22 7 -37 60 -154
114 -249 53 -94 167 -227 258 -299 241 -193 493 -249 873 -194 77 11 134 25
183 42 23 9 27 16 27 47 -1 66 -38 205 -84 309 -46 107 -167 281 -211 305 -12
7 -46 33 -74 59 -44 40 -51 51 -47 75 2 15 5 36 5 46 1 27 23 20 96 -30z
m-1341 -216 c8 -29 28 -77 44 -107 47 -92 94 -175 101 -180 4 -3 20 -23 36
-45 16 -22 51 -63 78 -91 27 -29 45 -54 40 -56 -4 -3 -48 -13 -98 -23 -115
-23 -449 -28 -507 -7 -21 8 -38 14 -38 15 0 25 56 189 80 237 54 103 214 310
241 310 4 0 15 -24 23 -53z m1269 -9 c63 -55 136 -156 176 -243 34 -72 81
-215 81 -245 0 -12 -18 -22 -62 -34 -35 -10 -72 -21 -83 -25 -41 -15 -203 -19
-295 -7 -25 4 -74 16 -110 28 -36 12 -71 23 -79 25 -10 3 -4 15 21 41 42 44
138 175 160 217 8 17 22 44 31 60 42 75 97 194 97 209 0 25 12 20 63 -26z"/>
</g>
</svg>
